<svg width="24" height="24" viewBox="0 0 24 24" fill="none" xmlns="http://www.w3.org/2000/svg">
<path d="M5.5 5C6.88071 5 8 3.88071 8 2.5C8 1.11929 6.88071 0 5.5 0C4.11929 0 3 1.11929 3 2.5C3 3.88071 4.11929 5 5.5 5Z" fill="#F7F7F7"/>
<path d="M10.2037 7.33762V20.9989H14.6242V14.2431C14.6242 12.4604 14.9737 10.7341 17.2772 10.7341C19.549 10.7341 19.5772 12.7722 19.5772 14.3556V21H24V13.5082C24 9.82813 23.1743 7 18.6917 7C16.5395 7 15.0968 8.13328 14.5069 9.20579H14.4471V7.33762H10.2037ZM3 7.33762H7.42753V20.9989H3V7.33762Z" fill="#F7F7F7"/>
</svg>
