<svg width="85" height="91" viewBox="0 0 85 91" fill="none" xmlns="http://www.w3.org/2000/svg">
<path d="M84.7253 40.4844L82.3864 20.0111C81.6992 13.9869 78.7217 8.60092 74.006 4.84801C69.3335 1.13025 63.5023 -0.538012 57.5956 0.151463L40.525 2.14418L26.626 0.529999C14.8773 -0.830026 4.2173 7.65188 2.85919 19.4379L1.14809 34.3116C0.0378952 38.9514 -0.296241 43.8588 0.275024 48.869L4.34395 84.4919C4.5676 86.4495 5.53498 88.1989 7.06824 89.4183C8.36436 90.4512 9.93804 90.9973 11.5656 90.9973C11.8485 90.9973 12.1315 90.9811 12.4171 90.9487L44.6721 87.1822L73.9333 90.5728C74.1569 90.5999 74.3806 90.6107 74.6015 90.6107C77.4956 90.6107 80.0043 88.426 80.3438 85.4734L83.8415 55.077C84.9598 50.4291 85.2993 45.5081 84.7253 40.4844ZM3.98017 19.5676C5.1739 9.19036 13.98 1.5196 24.1496 1.5196C24.9257 1.5196 25.7071 1.56556 26.4967 1.65479L35.7447 2.72551C20.5253 4.81556 8.28891 15.1117 2.93195 28.666L3.98017 19.5676ZM11.8782 86.4549C11.1479 86.5387 10.4312 86.3332 9.85181 85.8736C9.26168 85.4058 8.89251 84.7326 8.80359 83.9755L4.73467 48.3499C2.40649 27.9603 16.9118 9.45533 37.0759 7.1003L58.0995 4.64522C58.7947 4.56411 59.4899 4.52355 60.1798 4.52355C64.1625 4.52355 68.0077 5.86465 71.1847 8.39002C74.9572 11.3913 77.3366 15.7012 77.889 20.5221L80.228 40.9955C82.5588 61.3877 68.0508 79.8927 47.8868 82.2477L11.8782 86.4549ZM79.2256 85.3463C78.9318 87.9069 76.6117 89.7455 74.0653 89.4534L49.4551 86.6009C64.5721 84.4514 76.7249 74.1957 82.063 60.7118L79.2256 85.3463Z" fill="#F7F7F7"/>
<path d="M11.5682 90.9998C9.94062 90.9998 8.36964 90.4536 7.07082 89.4208C5.53757 88.2013 4.57019 86.452 4.34653 84.4944L0.274916 48.8688C-2.3362 26.0025 13.9476 5.24793 36.5745 2.60629L57.5982 0.151219C63.5076 -0.538257 69.3361 1.13 74.0059 4.84777C78.7215 8.60068 81.6991 13.9867 82.389 20.0108L84.7279 40.4842C87.339 63.3505 71.0553 84.105 48.4283 86.7467L12.4197 90.9511C12.1341 90.9836 11.8484 90.9998 11.5682 90.9998ZM60.1985 4.52601C59.5087 4.52601 58.8135 4.56657 58.1183 4.64768L37.0946 7.10276C16.9332 9.45509 2.42525 27.9601 4.75612 48.355L8.82504 83.9807C8.91127 84.735 9.28313 85.4083 9.87056 85.8787C10.4472 86.3384 11.1667 86.5439 11.8969 86.4601L47.9055 82.2556C68.0669 79.9006 82.5749 61.3956 80.2467 41.0033L77.9078 20.53C77.358 15.7063 74.976 11.3991 71.2035 8.39789C68.0265 5.8644 64.1812 4.52601 60.1985 4.52601Z" fill="#F7F7F7"/>
<path d="M68.3823 32.2514C63.761 32.2514 60.0155 36.0124 60.0155 40.6522V50.7158C60.0343 52.6599 59.0104 54.4687 57.337 55.4448C55.6609 56.4236 53.5914 56.4236 51.918 55.4448C50.242 54.466 49.218 52.6599 49.2396 50.7158V36.6883C49.2396 34.2062 47.2482 32.1946 44.7934 32.1946C42.3386 32.1946 40.3472 34.2062 40.3472 36.6883V50.7158C40.3472 53.7171 37.9139 56.1478 34.9175 56.1262C31.9453 56.1045 29.5686 53.6305 29.5686 50.6455V40.6494C29.5686 36.0097 25.8231 32.2487 21.2017 32.2487H20.6763V50.7131C20.6736 56.4858 24.0715 61.7069 29.318 63.9889C34.5645 66.2709 40.649 65.1732 44.7934 61.2012C48.9378 65.1732 55.0223 66.2682 60.2688 63.9889C65.5152 61.7069 68.9132 56.4885 68.9105 50.7131V32.2487H68.3823V32.2514Z" fill="#F7F7F7"/>
<path d="M13.9368 37.9752V38.57C13.9368 41.7308 16.4697 44.2913 19.5955 44.2913V32.2539C16.4697 32.2539 13.9368 34.8144 13.9368 37.9752Z" fill="#F7F7F7"/>
<path d="M84.7253 40.4844L82.3864 20.0111C81.6992 13.9869 78.7217 8.60092 74.006 4.84801C69.3335 1.13025 63.5023 -0.538013 57.5956 0.151463L40.525 2.14418L26.626 0.529999C14.8773 -0.830026 4.2173 7.65188 2.85919 19.4379L1.14809 34.3116C0.0378952 38.9514 -0.296241 43.8588 0.275024 48.869L4.34395 84.4919C4.5676 86.4495 5.53498 88.1989 7.06824 89.4183C8.36436 90.4512 9.93804 90.9973 11.5656 90.9973C11.8485 90.9973 12.1315 90.9811 12.4171 90.9487L44.6721 87.1823L73.9333 90.5729C74.1569 90.5999 74.3806 90.6107 74.6015 90.6107C77.4956 90.6107 80.0043 88.426 80.3438 85.4734L83.8415 55.077C84.9598 50.4291 85.2993 45.5082 84.7253 40.4844ZM3.98017 19.5676C5.1739 9.19036 13.98 1.5196 24.1496 1.5196C24.9257 1.5196 25.7071 1.56556 26.4967 1.65479L35.7447 2.72551C20.5253 4.81557 8.28891 15.1117 2.93195 28.666L3.98017 19.5676ZM11.8782 86.4549C11.1479 86.5387 10.4312 86.3333 9.85181 85.8736C9.26168 85.4058 8.89251 84.7326 8.80359 83.9755L4.73467 48.3499C2.40649 27.9603 16.9118 9.45533 37.0759 7.1003L58.0995 4.64522C58.7947 4.56411 59.4899 4.52355 60.1798 4.52355C64.1625 4.52355 68.0077 5.86465 71.1847 8.39002C74.9572 11.3913 77.3366 15.7012 77.889 20.5221L80.228 40.9955C82.5588 61.3877 68.0508 79.8927 47.8868 82.2478L11.8782 86.4549ZM79.2256 85.3464C78.9318 87.9069 76.6117 89.7455 74.0653 89.4535L49.4551 86.6009C64.5721 84.4514 76.7249 74.1958 82.063 60.7118L79.2256 85.3464Z" fill="#F7F7F7"/>
<path d="M11.5682 90.9998C9.94062 90.9998 8.36964 90.4536 7.07082 89.4208C5.53757 88.2013 4.57019 86.452 4.34653 84.4944L0.274916 48.8688C-2.3362 26.0025 13.9476 5.24793 36.5745 2.60629L57.5982 0.151219C63.5076 -0.538257 69.3361 1.13 74.0059 4.84777C78.7215 8.60068 81.6991 13.9867 82.389 20.0108L84.7279 40.4842C87.339 63.3505 71.0553 84.105 48.4283 86.7467L12.4197 90.9511C12.1341 90.9836 11.8484 90.9998 11.5682 90.9998ZM60.1985 4.52601C59.5087 4.52601 58.8135 4.56657 58.1183 4.64768L37.0946 7.10276C16.9332 9.45509 2.42525 27.9601 4.75612 48.355L8.82504 83.9807C8.91127 84.735 9.28313 85.4083 9.87056 85.8787C10.4472 86.3384 11.1667 86.5439 11.8969 86.4601L47.9055 82.2556C68.0669 79.9006 82.5749 61.3956 80.2467 41.0033L77.9078 20.53C77.358 15.7063 74.976 11.3991 71.2035 8.39789C68.0265 5.8644 64.1812 4.52601 60.1985 4.52601Z" fill="#F7F7F7"/>
<path d="M68.3823 32.2514C63.761 32.2514 60.0155 36.0124 60.0155 40.6522V50.7158C60.0343 52.6599 59.0104 54.4687 57.337 55.4448C55.6609 56.4236 53.5914 56.4236 51.918 55.4448C50.242 54.466 49.218 52.6599 49.2396 50.7158V36.6883C49.2396 34.2062 47.2482 32.1946 44.7934 32.1946C42.3386 32.1946 40.3472 34.2062 40.3472 36.6883V50.7158C40.3472 53.7171 37.9139 56.1478 34.9175 56.1262C31.9453 56.1045 29.5686 53.6305 29.5686 50.6455V40.6494C29.5686 36.0097 25.8231 32.2487 21.2017 32.2487H20.6763V50.7131C20.6736 56.4858 24.0715 61.7069 29.318 63.9889C34.5645 66.2709 40.649 65.1732 44.7934 61.2012C48.9378 65.1732 55.0223 66.2682 60.2688 63.9889C65.5152 61.7069 68.9132 56.4885 68.9105 50.7131V32.2487H68.3823V32.2514Z" fill="#F7F7F7"/>
<path d="M13.9368 37.9752V38.57C13.9368 41.7308 16.4697 44.2913 19.5955 44.2913V32.2539C16.4697 32.2539 13.9368 34.8144 13.9368 37.9752Z" fill="#F7F7F7"/>
</svg>
